<svg width="22" height="20" viewBox="0 0 22 20" fill="none" xmlns="http://www.w3.org/2000/svg">
<path d="M19.9531 6.08601C18.8258 4.53913 17.2508 3.50554 15.5234 3.03913V3.04148C15.1226 2.59617 14.6703 2.18601 14.1641 1.82038C10.3273 -0.968678 4.9414 -0.117897 2.14062 3.71882C-0.116414 6.83601 -0.02032 11.029 2.28124 14.0079L2.29999 17.1157C2.29999 17.1907 2.31171 17.2657 2.33515 17.336C2.45937 17.7321 2.88124 17.9501 3.27499 17.8259L6.24218 16.8907C7.02734 17.1696 7.83827 17.329 8.64452 17.3735L8.6328 17.3829C10.7211 18.904 13.4586 19.361 15.9687 18.5313L18.9476 19.5016C19.0226 19.5251 19.1 19.5391 19.1797 19.5391C19.5945 19.5391 19.9297 19.204 19.9297 18.7891V15.6485C21.9945 12.8454 22.0484 8.97117 19.9531 6.08601ZM6.5703 15.2266L6.28905 15.1094L3.96874 15.836L3.9453 13.3985L3.7578 13.1876C1.77499 10.7688 1.64374 7.28367 3.49999 4.72663C5.75937 1.6282 10.0906 0.943822 13.1797 3.17976C16.2781 5.4321 16.9648 9.75632 14.7266 12.836C12.8492 15.4118 9.48827 16.3634 6.5703 15.2266ZM18.4062 14.8282L18.2187 15.0626L18.2422 17.5001L15.9453 16.7266L15.6641 16.8438C14.3516 17.3313 12.9523 17.3712 11.6562 17.0079L11.6516 17.0055C13.3836 16.4735 14.9539 15.3954 16.0859 13.8438C17.8766 11.3759 18.1672 8.27507 17.1266 5.63132L17.1406 5.6407C17.6797 6.02742 18.1742 6.51023 18.5937 7.09382C20.2953 9.4282 20.1992 12.6063 18.4062 14.8282Z" fill="black"/>
</svg>
