<svg width="16" height="20" viewBox="0 0 16 20" fill="none" xmlns="http://www.w3.org/2000/svg">
<path fill-rule="evenodd" clip-rule="evenodd" d="M9 1C9 0.734784 8.89464 0.48043 8.70711 0.292893C8.51957 0.105357 8.26522 0 8 0C7.73478 0 7.48043 0.105357 7.29289 0.292893C7.10536 0.48043 7 0.734784 7 1V1.75H6.443C5.37103 1.74993 4.33933 2.15839 3.55792 2.89224C2.77652 3.62608 2.30416 4.63014 2.237 5.7L2.016 9.234C1.93173 10.5814 1.4793 11.8799 0.708 12.988C0.548633 13.2171 0.451257 13.4835 0.425343 13.7613C0.399428 14.0392 0.445856 14.319 0.560112 14.5736C0.674369 14.8281 0.852564 15.0488 1.07737 15.2142C1.30217 15.3795 1.56593 15.4838 1.843 15.517L5.25 15.925V17C5.25 17.7293 5.53973 18.4288 6.05546 18.9445C6.57118 19.4603 7.27065 19.75 8 19.75C8.72935 19.75 9.42882 19.4603 9.94454 18.9445C10.4603 18.4288 10.75 17.7293 10.75 17V15.925L14.157 15.516C14.4339 15.4827 14.6975 15.3784 14.9222 15.2131C15.1468 15.0478 15.3249 14.8273 15.4391 14.5729C15.5534 14.3184 15.5999 14.0388 15.5741 13.7611C15.5483 13.4834 15.4511 13.2171 15.292 12.988C14.5207 11.88 14.0682 10.5815 13.984 9.234L13.763 5.701C13.6961 4.63096 13.2238 3.62665 12.4424 2.8926C11.661 2.15855 10.6291 1.74995 9.557 1.75H9V1ZM6.443 3.25C5.75257 3.24992 5.08807 3.51297 4.58478 3.98561C4.08149 4.45825 3.77725 5.10493 3.734 5.794L3.514 9.328C3.41234 10.949 2.86792 12.511 1.94 13.844C1.92847 13.8606 1.92142 13.8798 1.91954 13.8999C1.91765 13.92 1.921 13.9403 1.92925 13.9587C1.93751 13.9771 1.95039 13.9931 1.96664 14.005C1.98289 14.017 2.00196 14.0246 2.022 14.027L5.759 14.476C7.248 14.654 8.752 14.654 10.241 14.476L13.978 14.027C13.998 14.0246 14.0171 14.017 14.0334 14.005C14.0496 13.9931 14.0625 13.9771 14.0707 13.9587C14.079 13.9403 14.0823 13.92 14.0805 13.8999C14.0786 13.8798 14.0715 13.8606 14.06 13.844C13.1324 12.5109 12.5884 10.9489 12.487 9.328L12.266 5.794C12.2228 5.10493 11.9185 4.45825 11.4152 3.98561C10.9119 3.51297 10.2474 3.24992 9.557 3.25H6.443ZM8 18.25C7.31 18.25 6.75 17.69 6.75 17V16.25H9.25V17C9.25 17.69 8.69 18.25 8 18.25Z" fill="#626262"/>
</svg>
