<svg width="20" height="20" viewBox="0 0 20 20" fill="none" xmlns="http://www.w3.org/2000/svg">
<path d="M17.3172 14.404C16.7305 13.8169 16.0451 13.3377 15.2922 12.9883C16.3539 12.1282 17.0312 10.8157 17.0312 9.34381C17.0312 6.74694 14.8656 4.61647 12.2687 4.65631C9.71171 4.69616 7.65155 6.77975 7.65155 9.34381C7.65155 10.8157 8.33124 12.1282 9.39061 12.9883C8.63758 13.3374 7.95207 13.8166 7.36561 14.404C6.08593 15.686 5.35936 17.3782 5.31249 19.1829C5.31186 19.2079 5.31625 19.2328 5.32539 19.2561C5.33454 19.2794 5.34825 19.3006 5.36572 19.3185C5.3832 19.3364 5.40408 19.3506 5.42714 19.3604C5.4502 19.3701 5.47497 19.3751 5.49999 19.3751H6.81249C6.91327 19.3751 6.99765 19.2954 6.99999 19.1946C7.04452 17.8352 7.5953 16.5626 8.56327 15.5969C9.0586 15.099 9.64777 14.7042 10.2967 14.4355C10.9456 14.1667 11.6414 14.0294 12.3437 14.0313C13.7711 14.0313 15.1141 14.5868 16.1242 15.5969C17.0898 16.5626 17.6406 17.8352 17.6875 19.1946C17.6898 19.2954 17.7742 19.3751 17.875 19.3751H19.1875C19.2125 19.3751 19.2373 19.3701 19.2603 19.3604C19.2834 19.3506 19.3043 19.3364 19.3218 19.3185C19.3392 19.3006 19.3529 19.2794 19.3621 19.2561C19.3712 19.2328 19.3756 19.2079 19.375 19.1829C19.3281 17.3782 18.6016 15.686 17.3172 14.404ZM12.3437 12.3438C11.5422 12.3438 10.7875 12.0321 10.2226 11.4649C9.93918 11.1837 9.71526 10.8482 9.56426 10.4786C9.41325 10.1089 9.33825 9.71262 9.34374 9.31334C9.35077 8.54459 9.6578 7.80162 10.1945 7.25084C10.757 6.67428 11.5094 6.35319 12.3133 6.34381C13.1078 6.33678 13.8789 6.64616 14.4461 7.20162C15.0273 7.77116 15.3461 8.53287 15.3461 9.34381C15.3461 10.1454 15.0344 10.8977 14.4672 11.4649C14.1889 11.7445 13.858 11.9661 13.4935 12.117C13.129 12.2679 12.7382 12.345 12.3437 12.3438ZM6.47265 9.96256C6.45155 9.75866 6.43983 9.55241 6.43983 9.34381C6.43983 8.97116 6.47499 8.60787 6.54061 8.25397C6.55702 8.16959 6.51249 8.08287 6.43515 8.04772C6.1164 7.90475 5.82343 7.70787 5.5703 7.45944C5.27204 7.17024 5.03733 6.82203 4.88116 6.43705C4.72499 6.05207 4.65078 5.63876 4.66327 5.2235C4.68436 4.47116 4.98671 3.75631 5.51405 3.21725C6.09296 2.62428 6.87108 2.30084 7.69843 2.31022C8.44608 2.31725 9.16796 2.60553 9.71405 3.11647C9.89921 3.28991 10.0586 3.48209 10.1922 3.68834C10.2391 3.761 10.3305 3.79147 10.4101 3.76334C10.8226 3.62037 11.2586 3.51959 11.7062 3.47272C11.8375 3.45866 11.9125 3.31803 11.8539 3.20084C11.0922 1.69381 9.53593 0.653187 7.73593 0.625062C5.13671 0.585218 2.97108 2.71569 2.97108 5.31022C2.97108 6.78209 3.64843 8.09459 4.71015 8.95475C3.96483 9.29928 3.27811 9.77506 2.6828 10.3704C1.39843 11.6524 0.671865 13.3446 0.62499 15.1516C0.624364 15.1766 0.628752 15.2015 0.637894 15.2248C0.647037 15.2481 0.660748 15.2693 0.678222 15.2872C0.695696 15.3052 0.716578 15.3194 0.739637 15.3291C0.762697 15.3388 0.787468 15.3438 0.81249 15.3438H2.12733C2.22811 15.3438 2.31249 15.2641 2.31483 15.1633C2.35936 13.804 2.91015 12.5313 3.87811 11.5657C4.56718 10.8766 5.41093 10.3985 6.33202 10.1665C6.42343 10.143 6.48436 10.0563 6.47265 9.96256Z" fill="#626262"/>
</svg>
