<svg width="20" height="13" viewBox="0 0 20 13" fill="none" xmlns="http://www.w3.org/2000/svg">
<path d="M19 1.5C19.0095 1.43032 19.0095 1.35968 19 1.29C18.9913 1.23129 18.9745 1.17407 18.95 1.12C18.9236 1.07113 18.8935 1.02433 18.86 0.98C18.822 0.916753 18.7748 0.859469 18.72 0.81L18.6 0.74C18.5423 0.696956 18.4782 0.663215 18.41 0.64H18.21C18.1491 0.580995 18.0779 0.533558 18 0.5H13C12.7348 0.5 12.4804 0.605357 12.2929 0.792893C12.1054 0.98043 12 1.23478 12 1.5C12 1.76522 12.1054 2.01957 12.2929 2.20711C12.4804 2.39464 12.7348 2.5 13 2.5H15.83L11.83 7.21L7.51001 4.64C7.30539 4.5183 7.06406 4.47359 6.82943 4.51392C6.5948 4.55425 6.38225 4.67696 6.23001 4.86L1.23001 10.86C1.1458 10.961 1.08236 11.0777 1.04332 11.2033C1.00427 11.3289 0.990393 11.461 1.00247 11.592C1.01454 11.7229 1.05234 11.8503 1.11369 11.9666C1.17504 12.0829 1.25875 12.1861 1.36001 12.27C1.53992 12.4191 1.76635 12.5005 2.00001 12.5C2.14692 12.5002 2.29207 12.4681 2.42516 12.4059C2.55824 12.3437 2.67598 12.2529 2.77001 12.14L7.22001 6.8L11.49 9.36C11.6925 9.48013 11.931 9.52493 12.1633 9.48651C12.3956 9.4481 12.6069 9.32893 12.76 9.15L17 4.2V6.5C17 6.76522 17.1054 7.01957 17.2929 7.20711C17.4804 7.39464 17.7348 7.5 18 7.5C18.2652 7.5 18.5196 7.39464 18.7071 7.20711C18.8946 7.01957 19 6.76522 19 6.5V1.5Z" fill="#626262"/>
</svg>
